<?xml version="1.0" encoding="UTF-8" standalone="no"?>
<!DOCTYPE svg PUBLIC "-//W3C//DTD SVG 1.1//EN" "http://www.w3.org/Graphics/SVG/1.1/DTD/svg11.dtd">
<svg width="100%" height="100%" viewBox="0 0 1080 1080" version="1.1" xmlns="http://www.w3.org/2000/svg" xmlns:xlink="http://www.w3.org/1999/xlink" xml:space="preserve" xmlns:serif="http://www.serif.com/" style="fill-rule:evenodd;clip-rule:evenodd;stroke-linejoin:round;stroke-miterlimit:2;">
    <g transform="matrix(1.8,0,0,1.8,0,0)">
        <g transform="matrix(1.34047,0,0,1.4002,-24.1806,-25.7918)">
            <ellipse cx="241.84" cy="232.674" rx="205.151" ry="196.4" style="fill:rgb(138,22,34);"/>
        </g>
        <g transform="matrix(1.14831,0,0,1.14831,56.3795,54.9484)">
            <path d="M212.599,39.233L241.134,87.405C241.134,87.405 245.679,102.401 276.127,79.679L260.676,161.935C260.676,161.935 258.403,172.16 263.175,173.75C267.947,175.341 271.128,173.296 277.945,165.798C284.762,158.299 308.393,131.714 308.393,131.714C308.393,131.714 313.165,155.8 319.754,156.481C326.344,157.163 367.699,145.574 367.699,145.574C367.699,145.574 352.248,197.382 353.384,201.472C354.52,205.562 374.971,213.288 374.971,213.288L297.941,276.457C297.941,276.457 285.67,282.365 300.213,308.723L222.501,298.27L216.594,302.815L219.775,387.571L212.599,387.571L212.599,39.233Z" style="fill:none;fill-rule:nonzero;stroke:rgb(246,246,246);stroke-width:14.51px;"/>
            <path d="M212.599,39.233L184.063,87.405C184.063,87.405 179.518,102.401 149.07,79.679L164.521,161.935C164.521,161.935 166.793,172.16 162.022,173.75C157.25,175.341 154.069,173.296 147.252,165.798C140.435,158.299 116.804,131.714 116.804,131.714C116.804,131.714 112.032,155.8 105.442,156.481C98.853,157.163 57.497,145.574 57.497,145.574C57.497,145.574 72.949,197.382 71.812,201.472C70.676,205.562 50.226,213.288 50.226,213.288L127.256,276.457C127.256,276.457 139.526,282.365 124.984,308.723L202.695,298.27L208.603,302.815L205.422,387.571L212.599,387.571L212.599,39.233Z" style="fill:none;fill-rule:nonzero;stroke:rgb(246,246,246);stroke-width:14.51px;"/>
        </g>
        <g transform="matrix(1.34047,0,0,1.4002,-24.1806,-25.7918)">
            <ellipse cx="241.84" cy="232.674" rx="205.151" ry="196.4" style="fill:none;stroke:rgb(246,246,246);stroke-width:12.16px;stroke-linecap:round;stroke-miterlimit:1.5;"/>
        </g>
    </g>
</svg>
